<?xml version="1.0" ?><svg viewBox="0 0 64 64" xmlns="http://www.w3.org/2000/svg"><defs><style>.cls-1{fill:#0072ff;}</style></defs><title/><g data-name="Layer 2" id="Layer_2"><path class="cls-1" d="M52.1,10H50.67A.67.67,0,0,1,50,9.33V8.17A4.12,4.12,0,0,0,46.39,4,4,4,0,0,0,42,8v5.89A2.07,2.07,0,0,1,40.34,16,2,2,0,0,1,38,14V11.38A1.38,1.38,0,0,0,36.62,10h-14A.67.67,0,0,1,22,9.33V8.17A4.12,4.12,0,0,0,18.39,4,4,4,0,0,0,14,8v5.89A2.07,2.07,0,0,1,12.34,16,2,2,0,0,1,10,14V12.28a1.39,1.39,0,0,0-2.08-1.19A7.88,7.88,0,0,0,4,17.9V48.59A11.41,11.41,0,0,0,15.41,60H48.59A11.41,11.41,0,0,0,60,48.59V17.9A7.9,7.9,0,0,0,52.1,10ZM46,16a2,2,0,1,1-2,2A2,2,0,0,1,46,16ZM18,16a2,2,0,1,1-2,2A2,2,0,0,1,18,16ZM52,48.26A3.74,3.74,0,0,1,48.26,52H15.74A3.74,3.74,0,0,1,12,48.26V27.74A3.74,3.74,0,0,1,15.74,24H48.26A3.74,3.74,0,0,1,52,27.74Z"/><path class="cls-1" d="M39.25,39.2l-3.63-4.52h1.74L32,28l-5.36,6.68h1.74L24.75,39.2h2.61L23.5,44H31a1,1,0,0,1,0,2H30v2h4V44.37a.37.37,0,0,1,.37-.37H40.5l-3.85-4.8Z"/></g></svg>