<svg xmlns="http://www.w3.org/2000/svg" viewBox="0 0 512 512"><rect width="481.18" height="324.48" x="15.41" y="119.17" fill="#fff" rx="48.18" ry="48.18"/><path fill="#4097ff" d="M496.59,167.35v47.82H15.41v-47.82c0-26.61,21.57-48.18,48.18-48.18h384.82c26.61,0,48.18,21.57,48.18,48.18Z"/><path fill="navy" d="M448.41,104.17H63.59C28.7,104.17.41,132.46.41,167.35v228.12c0,34.89,28.29,63.18,63.18,63.18h14.47c8.28,0,15-6.72,15-15h0c0-8.28-6.72-15-15-15h-14.47c-18.32,0-33.18-14.86-33.18-33.18v-228.12c0-18.32,14.86-33.18,33.18-33.18h384.82c18.32,0,33.18,14.86,33.18,33.18v228.12c0,18.32-14.86,33.18-33.18,33.18H138.06c-8.28,0-15,6.72-15,15h0c0,8.28,6.72,15,15,15h310.35c34.89,0,63.18-28.29,63.18-63.18v-228.12c0-34.89-28.29-63.18-63.18-63.18Z"/><path fill="navy" d="M141.52 169c-8.28 0-15-6.72-15-15s6.72-15 15-15c7.36 0 15.59-11.9 15.59-27.82s-8.23-27.82-15.59-27.82-15.59 11.9-15.59 27.82c0 8.28-6.72 15-15 15s-15-6.72-15-15c0-32.42 20.02-57.82 45.59-57.82s45.59 25.4 45.59 57.82-20.02 57.82-45.59 57.82zM256 169c-8.28 0-15-6.72-15-15s6.72-15 15-15c7.36 0 15.59-11.9 15.59-27.82s-8.23-27.82-15.59-27.82-15.59 11.9-15.59 27.82c0 8.28-6.72 15-15 15s-15-6.72-15-15c0-32.42 20.02-57.82 45.59-57.82s45.59 25.4 45.59 57.82-20.02 57.82-45.59 57.82zM370.48 169c-8.28 0-15-6.72-15-15s6.72-15 15-15c7.36 0 15.59-11.9 15.59-27.82s-8.23-27.82-15.59-27.82-15.59 11.9-15.59 27.82c0 8.28-6.72 15-15 15s-15-6.72-15-15c0-32.42 20.02-57.82 45.59-57.82s45.59 25.4 45.59 57.82-20.02 57.82-45.59 57.82zM496.59 230.17H15.41c-8.28 0-15-6.72-15-15s6.72-15 15-15h481.18c8.28 0 15 6.72 15 15s-6.72 15-15 15zM133.12 293h-41.59c-8.28 0-15-6.72-15-15s6.72-15 15-15h41.59c8.28 0 15 6.72 15 15s-6.72 15-15 15zM228.9 293h-41.59c-8.28 0-15-6.72-15-15s6.72-15 15-15h41.59c8.28 0 15 6.72 15 15s-6.72 15-15 15zM324.69 293h-41.59c-8.28 0-15-6.72-15-15s6.72-15 15-15h41.59c8.28 0 15 6.72 15 15s-6.72 15-15 15zM420.47 293h-41.59c-8.28 0-15-6.72-15-15s6.72-15 15-15h41.59c8.28 0 15 6.72 15 15s-6.72 15-15 15zM133.12 341h-41.59c-8.28 0-15-6.72-15-15s6.72-15 15-15h41.59c8.28 0 15 6.72 15 15s-6.72 15-15 15zM228.9 341h-41.59c-8.28 0-15-6.72-15-15s6.72-15 15-15h41.59c8.28 0 15 6.72 15 15s-6.72 15-15 15zM324.69 341h-41.59c-8.28 0-15-6.72-15-15s6.72-15 15-15h41.59c8.28 0 15 6.72 15 15s-6.72 15-15 15zM420.47 341h-41.59c-8.28 0-15-6.72-15-15s6.72-15 15-15h41.59c8.28 0 15 6.72 15 15s-6.72 15-15 15zM133.12 389h-41.59c-8.28 0-15-6.72-15-15s6.72-15 15-15h41.59c8.28 0 15 6.72 15 15s-6.72 15-15 15zM228.9 389h-41.59c-8.28 0-15-6.72-15-15s6.72-15 15-15h41.59c8.28 0 15 6.72 15 15s-6.72 15-15 15zM324.69 389h-41.59c-8.28 0-15-6.72-15-15s6.72-15 15-15h41.59c8.28 0 15 6.72 15 15s-6.72 15-15 15zM420.47 389h-41.59c-8.28 0-15-6.72-15-15s6.72-15 15-15h41.59c8.28 0 15 6.72 15 15s-6.72 15-15 15z"/></svg>