<svg id="Layer_1" data-name="Layer 1" xmlns="http://www.w3.org/2000/svg" viewBox="0 0 96 96"><defs><style>.cls-1{fill:#77cacb;}.cls-2{fill:#90d1d7;}.cls-3{fill:#abd9e6;}.cls-4{fill:#cba07a;}.cls-5{fill:#d9b18c;}.cls-6{fill:#e5c2a1;}.cls-7{fill:#f2d3b8;}.cls-8{fill:#ffd69e;}.cls-9{fill:#fac77d;}.cls-10{fill:#39426a;}</style></defs><title>global, international, package, box, shipping, logistic</title><path class="cls-1" d="M81,41A40,40,0,0,1,1,41c0-1.18.05-2.35.16-3.5a40,40,0,0,1,79.68,0C81,38.65,81,39.82,81,41Z"/><ellipse class="cls-2" cx="41" cy="37.5" rx="39.84" ry="36.5"/><path class="cls-3" d="M74.81,39.5a2,2,0,0,1-2-1.8A32.26,32.26,0,0,0,41,9a2,2,0,0,1,0-4A36.3,36.3,0,0,1,76.8,37.3,2,2,0,0,1,75,39.49Z"/><polygon class="cls-4" points="77 73 77 95 59 87 59 65 61 65.89 77 73"/><path class="cls-5" d="M77,73V86a4,4,0,0,1-5.62,3.65l-5.63-2.5A8,8,0,0,1,61,79.8V65.89Z"/><polygon class="cls-5" points="95 65 95 87 77 95 77 73 80 71.67 95 65"/><path class="cls-6" d="M95,65V83.33l-8,3.55a5,5,0,0,1-7-4.57V71.67Z"/><polygon class="cls-6" points="95 65 77 73 70.47 70.1 65.54 67.91 59 65 62.87 63.28 77 57 83.53 59.9 88.46 62.09 92.13 63.72 95 65"/><path class="cls-7" d="M92.13,63.72l-7.6,3.38a16.06,16.06,0,0,1-13.06,0h0l-4.93-2.19-3.67-1.63L77,57l6.53,2.9,4.93,2.19Z"/><polygon class="cls-8" points="88.46 62.09 70.47 70.1 65.54 67.91 83.53 59.9 88.46 62.09"/><polygon class="cls-9" points="70 69.89 70 74.89 65 72.67 65 67.67 70 69.89"/><path class="cls-7" d="M65.41,83.76l-3-1.33a1,1,0,0,0-1.32.51,1,1,0,0,0,.5,1.32l3,1.33a1.19,1.19,0,0,0,.41.08,1,1,0,0,0,.41-1.91Z"/><path class="cls-10" d="M65.41,83.76l-3-1.33a1,1,0,0,0-1.32.51,1,1,0,0,0,.5,1.32l3,1.33a1.19,1.19,0,0,0,.41.08,1,1,0,0,0,.41-1.91Z"/><path class="cls-10" d="M96,64.73l0-.08-.08-.16a.16.16,0,0,0-.06-.08.64.64,0,0,0-.1-.13l-.09-.07-.06,0-.08,0,0,0-6.52-2.9h0L83.94,59h0l-5.09-2.27c.1-.22.19-.46.28-.67.15-.39.3-.78.43-1.15s.34-1,.49-1.46.31-1,.44-1.46c.06-.19.11-.39.15-.55.12-.46.23-.93.33-1.39s.23-1,.33-1.56c0,0,0-.13,0-.15l0-.11c.07-.43.14-.88.2-1.32,0-.15,0-.29,0-.35.08-.54.15-1.09.18-1.6s.11-1.17.14-1.73c0-.28,0-.54,0-.91s0-.64,0-1v-.2A.66.66,0,0,0,82,41a1,1,0,0,0,0-.17,41,41,0,0,0-9.8-26.41s0-.06,0-.08a.81.81,0,0,0-.14-.12,41.25,41.25,0,0,0-9.4-8.07,40,40,0,0,0-3.67-2c-.35-.18-.71-.34-1.06-.5l-.62-.28c-.23-.1-.46-.2-.68-.28a40.6,40.6,0,0,0-4.3-1.5L51.1,1.27c-.39-.11-.79-.2-1.17-.28s-.8-.18-1.17-.25-.61-.12-.87-.15L47.07.45H47L46.15.33l-1-.11c-.2,0-.41,0-.55,0l-.9-.08-1,0L41.49,0h-.93c-.42,0-.83,0-1.22,0L38.24.1l-.78.06c-.2,0-.41,0-.59.06L35.81.33,34.9.45l-.77.13c-.31,0-.62.1-.89.16s-.8.15-1.19.24-.79.18-1.18.29-.78.2-1.15.31a40.28,40.28,0,0,0-4.29,1.49l-.72.3-.65.29c-.34.16-.68.31-1,.47a40.21,40.21,0,0,0-3.69,2A41.17,41.17,0,0,0,0,41v.35c0,.32,0,.64,0,1l1,0-1,.18c0,.25,0,.5,0,.74,0,.58.07,1.17.13,1.72S.3,46,.37,46.47c0,.12,0,.24.06.43.06.44.13.89.2,1.32a.44.44,0,0,1,0,.1l0,.16c.1.53.2,1,.32,1.54s.22.94.33,1.37l.15.56c.13.48.28,1,.45,1.49s.32,1,.48,1.43.29.79.44,1.16.19.49.32.79.2.5.3.7.31.7.49,1a2.56,2.56,0,0,0,.11.24l0,.1c.22.46.44.91.65,1.27a2.24,2.24,0,0,0,.2.37q.38.72.78,1.38c.23.4.48.79.68,1.09s.28.45.42.66c.29.43.58.86.88,1.26s.69.94,1,1.4.74.92,1.13,1.37A40.89,40.89,0,0,0,40.51,82h1A40.65,40.65,0,0,0,58,78.3V87a1,1,0,0,0,.59.92l18,8h0a1,1,0,0,0,.72,0h0l18-8A1,1,0,0,0,96,87V65A1.26,1.26,0,0,0,96,64.73ZM77,58.1l4.07,1.8L65.54,66.82,61.46,65Zm9,4L70.47,69,68,67.91,83.53,61ZM66,69.21l3,1.33v2.81L66,72Zm11,2.7-1.73-.77-2.34-1,15.53-6.91L92.54,65Zm2.91-28.82c0,.55-.07,1.1-.13,1.68s-.09,1-.18,1.54a2.19,2.19,0,0,1,0,.31c-.06.41-.12.83-.19,1.24a1.32,1.32,0,0,0,0,.24c-.1.5-.2,1-.32,1.5s-.2.88-.33,1.36a3.9,3.9,0,0,1-.13.48c-.12.47-.27.94-.42,1.4s-.29.92-.47,1.39-.25.71-.4,1.08-.19.45-.29.7a.84.84,0,0,0-.38.08L64.05,61.66a51.49,51.49,0,0,0-7.73-2.72c0-.19.08-.38.11-.57l.12-.6v-.08c.1-.57.19-1.15.28-1.72.12-.73.23-1.47.32-2.2.26-1.94.46-4,.61-6.08.07-1,.12-2,.15-3,0-.57,0-1.15,0-1.73,0-.31,0-.63,0-.94H80c0,.11,0,.21,0,.33S79.93,42.82,79.91,43.09ZM41.35,80h-.7c-5.08-.32-10-8-12.6-19.56a59.15,59.15,0,0,1,25.9,0C51.33,72,46.43,79.67,41.35,80ZM41,57a60.27,60.27,0,0,0-13.37,1.48c0-.16-.07-.32-.1-.49l-.12-.61h0v0c-.09-.56-.18-1.12-.27-1.71s-.23-1.41-.32-2.13c-.25-1.89-.45-3.89-.59-6-.07-1-.12-1.95-.15-2.95,0-.56,0-1.13-.05-1.69,0-.3,0-.61,0-.91H56c0,.3,0,.6,0,.9,0,.57,0,1.14,0,1.7,0,1-.08,2-.15,2.95-.14,2.06-.34,4.06-.59,6-.09.71-.2,1.43-.32,2.14l-.27,1.69v0l-.12.61c0,.17-.07.33-.1.49A60.94,60.94,0,0,0,41,57ZM2,40a39,39,0,0,1,8.83-23.7,45.53,45.53,0,0,0,14.83,6.75c0,.19-.07.39-.11.58l-.12.61v0a.09.09,0,0,1,0,0c-.1.58-.19,1.15-.28,1.73,0,.31-.1.62-.14.9s-.13.87-.18,1.3l-.09.69c-.07.5-.12,1-.17,1.5,0,.19-.05.39-.07.6l0,.27c0,.52-.1,1.05-.14,1.56s-.07.92-.1,1.37c-.06.77-.1,1.54-.13,2.3s-.05,1.22-.07,1.87v.16c0,.47,0,1,0,1.44Zm24-1.57c0-.6,0-1.2.07-1.81s.07-1.49.13-2.24c0-.46.06-.9.1-1.35s.09-1,.13-1.52l0-.29c0-.17,0-.34.06-.55.05-.49.1-1,.17-1.48l.09-.7c.05-.42.11-.82.18-1.26,0-.29.09-.57.14-.87.09-.58.18-1.14.28-1.71v0l.12-.62c0-.16.06-.32.1-.49A60.27,60.27,0,0,0,41,25a60.27,60.27,0,0,0,13.37-1.48c.18.87.34,1.81.5,2.85.05.29.1.57.14.88.1.64.19,1.28.27,2,.07.48.12,1,.17,1.51,0,.16,0,.33.06.5l0,.3c.05.5.09,1,.13,1.52s.07.88.1,1.35c.06.74.1,1.48.13,2.24,0,.6.05,1.2.07,1.77v.21c0,.46,0,.93,0,1.39H26c0-.47,0-.94,0-1.42ZM36.31,4l.42-.35c.12-.1.25-.2.41-.31s.21-.15.33-.23a6.28,6.28,0,0,1,.76-.44l.44-.21a5.76,5.76,0,0,1,2-.49h.69a3.71,3.71,0,0,1,.44.05,6.15,6.15,0,0,1,1.54.45l.45.2.41.23a3.81,3.81,0,0,1,.34.22,2.94,2.94,0,0,1,.35.25,5.22,5.22,0,0,1,.42.32l.36.3a15.37,15.37,0,0,1,1.84,2c.24.3.47.62.71,1,.08.1.15.22.23.33l.11.18c.23.35.45.72.68,1.11.33.57.66,1.19,1,1.82l.27.56c.07.15.14.32.22.48l0,.1a1,1,0,0,1,.08.18c.08.2.17.4.26.61l0,.09c.29.68.57,1.4.84,2.15.09.25.18.5.26.76.3.85.59,1.81.91,2.93l.74,2.88.09.4A59,59,0,0,1,41,23a59,59,0,0,1-13-1.43l.09-.41.74-2.88a47.72,47.72,0,0,1,2.43-6.81c.08-.16.15-.33.22-.48.41-.87.83-1.67,1.25-2.39.22-.38.44-.75.68-1.11.11-.18.22-.34.34-.52.23-.34.46-.66.7-1A14.63,14.63,0,0,1,36.31,4ZM71.13,16.31A39,39,0,0,1,80,40H58c0-.47,0-1,0-1.42v-.21c0-.62,0-1.23-.07-1.83,0-.78-.07-1.54-.13-2.29,0-.47-.06-.93-.1-1.37s-.09-1.07-.15-1.59l0-.26c0-.21,0-.41-.06-.56-.06-.52-.11-1-.18-1.52q-.12-1-.27-2c0-.31-.09-.62-.14-.92-.17-1.1-.35-2.08-.53-3A45.52,45.52,0,0,0,71.13,16.31ZM47.56,2.56c.27,0,.52.08.81.15s.74.14,1.13.23.73.16,1.1.26.74.19,1.11.3a40.91,40.91,0,0,1,4.11,1.43l.66.28.54.24,1,.48a38.35,38.35,0,0,1,3.49,1.92,39.45,39.45,0,0,1,8.28,7A43.54,43.54,0,0,1,55.9,21.09l-.09-.39-.76-3c-.32-1.15-.63-2.14-.93-3-.1-.27-.19-.53-.28-.79-.23-.64-.54-1.47-.88-2.27l0-.09c-.09-.19-.17-.38-.24-.56a2.82,2.82,0,0,0-.16-.34l-.24-.53L52,9.57c-.33-.69-.69-1.35-1-2-.24-.41-.48-.81-.74-1.2l-.11-.17-.25-.37c-.25-.38-.52-.74-.78-1.09A19,19,0,0,0,47,2.52l-.08-.07ZM20.44,7.85A36.17,36.17,0,0,1,24,5.93c.31-.16.63-.31,1-.48.17-.09.34-.16.55-.25l.65-.27a36.92,36.92,0,0,1,4.1-1.43c.36-.11.73-.2,1.11-.3s.72-.18,1.1-.26.74-.17,1.15-.24c.26-.06.51-.1.83-.15l.64-.1-.1.08a16.29,16.29,0,0,0-2.09,2.25c-.26.34-.53.7-.77,1-.13.19-.26.38-.38.58-.25.38-.49.78-.72,1.19-.45.76-.89,1.62-1.32,2.54-.08.16-.16.34-.25.54A48.26,48.26,0,0,0,27,17.74l-.76,3-.09.39a43.67,43.67,0,0,1-13.93-6.3A38.94,38.94,0,0,1,20.44,7.85ZM8.5,62.56c-.11-.17-.22-.33-.36-.57s-.44-.7-.67-1.08S7,60,6.71,59.57a.41.41,0,0,0,0-.09,1,1,0,0,1-.1-.19c-.22-.4-.44-.82-.63-1.22l-.08-.16,0-.09a.31.31,0,0,0,0-.1c-.16-.33-.31-.66-.47-1a6.39,6.39,0,0,1-.26-.6L5,56c-.1-.23-.19-.45-.28-.69s-.28-.71-.41-1.09-.32-.9-.48-1.42-.28-.9-.42-1.41c0-.14-.08-.28-.12-.46-.12-.44-.23-.87-.33-1.34s-.21-1-.3-1.41a2.87,2.87,0,0,0,0-.31c-.07-.41-.13-.83-.2-1.32a1.68,1.68,0,0,1,0-.3c-.08-.49-.13-1-.18-1.51s-.09-1.09-.12-1.66c0-.24,0-.46,0-.7v-.12A2.09,2.09,0,0,0,2,42H24c0,.31,0,.63,0,.94,0,.58,0,1.16.05,1.72q0,1.55.15,3c.15,2.1.35,4.14.61,6.06.09.75.2,1.49.32,2.21s.18,1.16.28,1.73v.08l.12.6c0,.2.08.39.11.58A45.74,45.74,0,0,0,10.85,65.7l-.5-.6c-.35-.44-.68-.89-1-1.35S8.78,63,8.5,62.56Zm3.66,4.66a43.69,43.69,0,0,1,14-6.31c2,8.84,5.16,15.32,8.93,18.62A39,39,0,0,1,12.16,67.22ZM46.93,79.53c3.8-3.3,7-9.78,9-18.63a49.23,49.23,0,0,1,5.65,1.88l-3,1.31-.05,0-.08,0-.06,0-.09.07a.64.64,0,0,0-.1.13.24.24,0,0,0-.06.08.8.8,0,0,0-.08.16l0,.08A1.26,1.26,0,0,0,58,65V76.09A38.09,38.09,0,0,1,46.93,79.53ZM60,66.54l4,1.78v4.35a1,1,0,0,0,.59.92l5,2.22a1.15,1.15,0,0,0,.41.08,1,1,0,0,0,.54-.16,1,1,0,0,0,.46-.84V71.43l5,2.22V93.46L60,86.35ZM94,86.35,78,93.46V73.65l16-7.11Z"/></svg>